<?xml version="1.0" encoding="iso-8859-1"?>
<!-- Generator: Adobe Illustrator 19.0.0, SVG Export Plug-In . SVG Version: 6.00 Build 0)  -->
<svg version="1.1" id="Layer_1" xmlns="http://www.w3.org/2000/svg" xmlns:xlink="http://www.w3.org/1999/xlink" x="0px" y="0px"
	 viewBox="0 0 512 512" style="enable-background:new 0 0 512 512;" xml:space="preserve">
<g transform="translate(0 1)">
	<g>
		<path d="M392.425,109.933c-7.68,0-15.36,2.56-21.333,6.827V54.467c0-21.333-17.067-38.4-38.4-38.4
			c-9.387,0-17.067,3.413-23.893,8.533C303.678,9.24,289.172-1,272.958-1c-10.24,0-20.48,3.413-27.307,11.093
			S234.558,27.16,234.558,37.4v2.56c-5.973-4.267-13.653-6.827-21.333-6.827c-21.333,0-38.4,17.067-38.4,38.4v151.04
			c-7.68-16.213-17.92-31.573-28.16-41.813c-13.653-13.653-40.96-14.507-56.32-1.707c-4.267,4.267-18.773,19.627,0.853,46.933
			c17.92,25.6,32.427,81.92,32.427,114.347c0,68.267,44.373,98.987,59.733,107.52v29.013c0,18.773,15.36,34.133,34.133,34.133h153.6
			c18.773,0,34.133-15.36,34.133-34.133v-30.72c25.6-34.987,25.6-39.253,25.6-105.813v-192
			C430.825,127,413.758,109.933,392.425,109.933z M413.758,340.333c0,62.492-0.004,64.772-21.381,93.867h-12.752
			c-5.12,0-8.533,3.413-8.533,8.533s3.413,8.533,8.533,8.533h8.533v25.6c0,9.387-7.68,17.067-17.067,17.067h-153.6
			c-9.387,0-17.067-7.68-17.067-17.067v-25.6h16.213c5.12,0,8.533-3.413,8.533-8.533s-3.413-8.533-8.533-8.533h-23.249
			c-9.684-4.873-52.698-31.272-52.698-93.867c0-31.573-13.653-93.867-34.987-124.587c-5.973-7.68-11.093-17.92-3.413-23.893
			c3.413-3.413,9.387-5.12,15.36-5.12s12.8,2.56,17.067,5.973c21.333,21.333,40.107,66.56,40.107,87.893
			c0,23.893,15.36,42.667,34.133,42.667c4.267,0,8.533-3.413,8.533-8.533s-3.413-8.533-8.533-8.533
			c-9.387,0-17.067-11.947-17.067-25.6V71.533c0-11.947,9.387-21.333,21.333-21.333s21.333,9.387,21.333,21.333V229.4
			c0,4.267-0.853,7.68-1.707,8.533c-4.267,0.853-6.827,4.267-6.827,8.533c0,5.12,3.413,8.533,8.533,8.533
			c3.217,0,6.096-1.096,8.533-3.047c2.437,1.951,5.317,3.047,8.533,3.047c4.267,0,8.533-3.413,8.533-8.533
			c0-4.267-3.413-7.68-6.827-8.533c-0.853-0.853-1.707-4.267-1.707-8.533V71.533V37.4c0-5.973,2.56-11.093,5.973-15.36
			c4.267-3.413,9.387-5.973,15.36-5.973c11.947,0,21.333,9.387,21.333,21.333v15.36c0,0.853,0,0.853,0,1.707v183.467
			c0,4.267-0.853,7.68-1.707,8.533c-4.267,0.853-6.827,4.267-6.827,8.533c0,5.12,3.413,8.533,8.533,8.533
			c3.217,0,6.096-1.096,8.533-3.047c2.437,1.951,5.317,3.047,8.533,3.047c4.267,0,8.533-3.413,8.533-8.533
			c0-4.267-3.413-7.68-6.827-8.533c-0.853-0.853-1.707-4.267-1.707-8.533V53.613c0.853-11.947,10.24-20.48,21.333-20.48
			c11.947,0,21.333,9.387,21.333,21.333v92.16c0,0.853,0,0.853,0,1.707V255c0,4.267-0.853,7.68-1.707,8.533
			c-4.267,0.853-6.827,4.267-6.827,8.533c0,5.12,3.413,8.533,8.533,8.533c3.217,0,6.096-1.096,8.533-3.047
			c2.437,1.951,5.317,3.047,8.533,3.047c4.267,0,8.533-3.413,8.533-8.533c0-4.267-3.413-7.68-6.827-8.533
			c-0.853-0.853-1.707-4.267-1.707-8.533V147.48c0.853-11.947,10.24-20.48,21.333-20.48c11.947,0,21.333,9.387,21.333,21.333
			V340.333z"/>
	</g>
</g>
<g>
</g>
<g>
</g>
<g>
</g>
<g>
</g>
<g>
</g>
<g>
</g>
<g>
</g>
<g>
</g>
<g>
</g>
<g>
</g>
<g>
</g>
<g>
</g>
<g>
</g>
<g>
</g>
<g>
</g>
</svg>
