<?xml version="1.0" encoding="iso-8859-1"?>
<!-- Generator: Adobe Illustrator 19.0.0, SVG Export Plug-In . SVG Version: 6.00 Build 0)  -->
<svg version="1.1" id="Layer_1" xmlns="http://www.w3.org/2000/svg" xmlns:xlink="http://www.w3.org/1999/xlink" x="0px" y="0px"
	 viewBox="0 0 512 512" style="enable-background:new 0 0 512 512;" xml:space="preserve">
<g transform="translate(0 1)">
	<g>
		<path d="M394.33,248.712c5.389-20.66-5.389-42.218-26.049-49.404c-8.084-2.695-17.965-2.695-26.049,0
			c0-16.168-10.779-31.439-26.947-36.828l-1.797-0.898c-9.881-2.695-20.66-2.695-29.642,1.797l20.66-110.484
			c1.797-12.575,0-25.151-6.288-35.032C290.133,6.186,278.456-1,265.881-1c-22.456,0-37.726,21.558-41.319,44.014l-17.965,115.874
			L188.632,51.098c-8.982-37.726-28.744-43.116-39.523-43.116c-12.575,0-25.151,7.186-33.235,18.863
			c-6.288,9.881-8.982,22.456-7.186,35.032l26.049,172.463l11.677,56.589l-8.084,6.288c-0.356,0.214-0.674,0.457-0.974,0.712
			c-26.918,19.547-29.566,40.054-29.566,68.452v0.898c0,37.726,26.049,66.47,35.93,75.453v32.337c0,19.761,16.168,35.93,35.93,35.93
			h162.582c19.761,0,35.032-15.27,35.032-35.93v-33.235c26.049-35.032,26.947-47.607,26.947-110.484
			C404.211,298.116,395.228,260.389,394.33,248.712z M284.744,273.863c1.499-3.56,2.325-7.355,2.576-11.237
			c1.093-9.441-1.223-18.6-6.232-25.881c-3.023-5.45-6.99-10.326-11.614-14.083l9.881-28.744
			c4.491-11.677,16.168-17.067,27.846-13.474l1.797,0.898c4.027,1.342,7.55,3.689,10.199,7.037
			c3.49,5.388,4.474,12.194,2.376,19.012l-6.288,17.965c-0.269,0.806-0.426,1.589-0.502,2.349l-30.655,88.559
			c-5.495,8.362-15.456,11.867-25.432,8.797l-1.797-0.898c-0.898,0-2.695-0.898-3.593-1.797
			C268.575,302.607,280.253,285.54,284.744,273.863z M300.014,325.063l0.273-0.79c1.281-2.024,2.399-4.16,3.32-6.396l32.063-92.182
			c0.144-0.178,0.286-0.358,0.435-0.533c0.714-0.831,1.496-1.617,2.333-2.351c0.837-0.734,1.729-1.417,2.664-2.043
			c0.936-0.626,1.914-1.194,2.925-1.699c5.389-2.695,11.677-2.695,17.067-0.898s9.881,6.288,12.575,11.677
			c2.695,5.389,2.695,11.677,0.898,17.067l-32.337,93.418c-1.797,5.39-6.288,9.881-11.677,12.576
			c-5.389,2.695-11.677,2.695-17.067,0.898s-9.881-6.288-12.575-11.677C298.218,336.74,298.218,330.453,300.014,325.063z
			 M152.702,231.646L126.653,59.182c-0.898-8.982,0-16.168,4.491-22.456s11.677-10.779,17.965-10.779
			c12.575,0,18.863,16.168,21.558,28.744l26.947,161.684c0.898,3.593,4.491,7.186,8.982,7.186s8.084-2.695,8.982-7.186
			l26.947-170.667c2.695-14.372,11.677-28.744,23.354-28.744c6.288,0,12.575,3.593,16.168,9.881
			c3.593,6.288,5.389,14.372,3.593,22.456l-27.846,148.211c-0.317,1.587-0.178,3.17,0.322,4.598l-7.411,21.174
			c-8.081,0.814-17.989,4.121-29.739,11.955c-11.942,7.962-36.135,26.214-59.187,43.899L152.702,231.646z M361.095,433.751
			c-1.796,1.797-1.796,3.593-1.796,6.288v35.032c0,9.881-7.186,17.965-17.067,17.965H179.649c-9.881,0-17.965-8.084-17.965-17.965
			v-35.93c0-2.695-0.898-5.389-3.593-7.186c0,0-31.439-26.947-32.337-63.775c0-28.744,1.797-41.319,23.354-56.589
			c0.898,0,0.898,0,0.898,0l8.312-7.034c28.39-21.649,59.578-45.143,72.53-54.047c14.372-9.881,26.049-11.677,33.235-6.288
			c5.389,4.491,7.186,14.372,4.491,22.456c-0.537,1.289-1.197,2.701-1.96,4.211c-15.083,29.039-68.226,73.464-88.763,82.021
			c-4.491,1.796-6.288,7.186-4.491,11.677c0.898,3.593,4.491,5.389,8.084,5.389c0.898,0,1.797,0,3.593-0.898
			c11.717-5.208,32.24-19.851,51.844-37.445c4.192,4.502,9.407,7.363,14.626,9.599l1.797,0.898
			c3.593,0.898,8.084,1.797,12.575,1.797c5.434,0,10.765-1.222,15.689-3.419c0.672,3.288,1.737,6.543,3.174,9.706
			c5.389,9.881,13.474,17.067,23.354,20.66c4.491,0.898,8.982,1.797,13.474,1.797c6.288,0,12.576-1.796,17.067-3.593
			c9.881-5.389,17.067-13.474,20.66-23.354l21.881-63.213c2.64,14.599,5.066,32.465,5.066,48.841
			C386.246,394.228,385.347,401.414,361.095,433.751z"/>
	</g>
</g>
<g>
</g>
<g>
</g>
<g>
</g>
<g>
</g>
<g>
</g>
<g>
</g>
<g>
</g>
<g>
</g>
<g>
</g>
<g>
</g>
<g>
</g>
<g>
</g>
<g>
</g>
<g>
</g>
<g>
</g>
</svg>
